<?xml version="1.0" encoding="UTF-8" standalone="no"?>
<svg width="354px" height="62px" viewBox="0 0 354 62" version="1.1" xmlns="http://www.w3.org/2000/svg" xmlns:xlink="http://www.w3.org/1999/xlink" xmlns:sketch="http://www.bohemiancoding.com/sketch/ns">
    <!-- Generator: Sketch 3.4.3 (16618) - http://www.bohemiancoding.com/sketch -->
    <title>umbreo_logo_svg.svg</title>
    <desc>Created with Sketch.</desc>
    <defs></defs>
    <g id="Welcome" stroke="none" stroke-width="1" fill="none" fill-rule="evenodd" sketch:type="MSPage">
        <g id="Artboard-5" sketch:type="MSArtboardGroup" transform="translate(-9.000000, -12.000000)">
            <g id="umbreo_logo_svg.svg" sketch:type="MSLayerGroup" transform="translate(9.000000, 13.000000)">
                <g id="umbreo_svg" sketch:type="MSShapeGroup">
                    <g id="svg3061">
                        <path d="M45.7502339,1.29047329 C48.0135087,0.114041826 50.6631678,-0.295308306 53.1559315,0.22448233 C55.4929706,0.686651834 57.6321342,1.93631015 59.3720341,3.57851244 C60.6939365,4.83297253 61.8331845,6.29270789 62.7347477,7.89169433 C59.178842,9.55910587 56.0069787,12.0320128 53.3748826,14.9886972 C52.8655579,15.5625077 52.3796505,16.157926 51.8832053,16.7437409 C51.7028927,13.4761425 51.5846357,10.2025419 51.4581826,6.933743 C51.3012872,10.5434669 51.3223627,14.1579925 51.2204978,17.7701173 C50.9874964,18.0306128 50.7662036,18.3031128 50.5765241,18.5984211 C48.7171964,21.4050504 47.2524489,24.509389 46.4211374,27.7997958 C45.6401729,30.9341453 45.4024881,34.2701688 46.1494976,37.4369302 C46.703315,39.8210046 47.8554425,42.1138455 49.6527145,43.7608496 C49.5637291,44.2626336 49.4688893,44.7632172 49.3728787,45.2626004 C48.0931273,43.3478981 47.0522316,41.2783391 46.0722207,39.189573 C44.0290678,34.7515454 42.3079017,30.1682644 40.6124946,25.5813821 C39.1980941,21.736372 37.831699,17.8733552 36.447741,14.0163406 C36.4278363,13.9263076 36.3903688,13.7462415 36.3704641,13.6562085 C37.063614,11.6322662 37.8914129,9.64193625 39.0236358,7.83047188 C40.6886005,5.13188215 42.9272873,2.71299501 45.7502339,1.29047329 L45.7502339,1.29047329 Z" id="path3065" fill="#01A6B6"></path>
                        <path d="M23.3212151,8.54833516 C25.6711337,6.63603381 28.749328,5.84734455 31.7151196,5.98779606 C34.2394966,6.09463525 36.7205516,6.78248752 39.0236358,7.83047188 C37.8914129,9.64193625 37.063614,11.6322662 36.3704641,13.6562085 L36.3505595,13.7150301 C35.9372454,12.6154268 35.5649116,11.5014182 35.1597935,10.3994141 C35.459534,11.7559116 35.9173408,13.0715941 36.2685992,14.4148868 C36.1456587,14.6477722 36.0274018,14.8866598 35.9594918,15.143554 C35.6304798,16.4136198 35.3845989,17.7040931 35.1937485,19.0029695 C31.0418744,16.8961968 26.4333644,15.5949195 21.7768491,15.7305693 C20.8506978,15.7437741 19.9327425,15.8758226 19.0124456,15.967056 C19.5721173,13.0944025 21.0392064,10.3525969 23.3212151,8.54833516 L23.3212151,8.54833516 Z" id="path3067" fill="#12B8D1"></path>
                        <path d="M69.2037563,6.05982248 C71.6578815,5.80292826 74.2091883,6.11024097 76.4525585,7.20144118 C78.2053379,8.04054893 79.7274575,9.36703542 80.8432883,10.9852289 C81.867792,12.479777 82.5468915,14.2072106 82.9016625,15.9946662 C78.0929352,15.2215826 73.1366793,16.1543247 68.6850647,18.0822318 C67.8584367,18.4207559 67.0751305,18.8553153 66.2672362,19.2358549 C66.1103408,17.9549851 65.9674957,16.6645118 65.618579,15.4208557 C66.0436017,13.6646116 66.6676707,11.947982 67.070447,10.1809339 C66.5283383,11.6346671 66.04126,13.1100082 65.4792465,14.5565387 C65.0284649,13.1460214 64.6174926,11.716297 64.0051322,10.3670022 C63.6363109,9.51468958 63.2007505,8.69478887 62.7605066,7.87848949 C64.8036596,6.95054916 66.9732655,6.28070349 69.2037563,6.05982248 L69.2037563,6.05982248 Z" id="path3069" fill="#12B8D1"></path>
                        <path d="M53.3748826,14.9886972 C56.0069787,12.0320128 59.178842,9.55910587 62.7347477,7.89169433 L62.7605066,7.87848949 C63.2007505,8.69478887 63.6363109,9.51468958 64.0051322,10.3670022 C64.6174926,11.716297 65.0284649,13.1460214 65.4792465,14.5565387 L65.4862717,14.5757458 C62.934965,21.6199293 60.4609351,28.6989255 57.5583699,35.6002566 C56.4893736,38.0887693 55.3747136,40.5640772 54.0270523,42.908537 C53.0435288,37.4657408 52.6910996,31.9305107 52.3503789,26.4144877 C52.1747498,23.1913056 51.9932663,19.966923 51.8832053,16.7437409 C52.3796505,16.157926 52.8655579,15.5625077 53.3748826,14.9886972 L53.3748826,14.9886972 Z" id="path3071" fill="#007895"></path>
                        <path d="M35.9594918,15.143554 C36.0274018,14.8866598 36.1456587,14.6477722 36.2685992,14.4148868 C37.502687,18.6812515 38.7039907,22.9596206 39.9029526,27.2367893 C39.3093259,25.635402 38.7461417,24.0208098 38.1782739,22.409819 C38.2262793,22.7891581 38.3410237,23.1540919 38.4499138,23.5178253 C39.4228995,26.9246748 40.4052521,30.327923 41.3536497,33.7419751 C42.2505295,37.0743973 43.2633245,40.3900133 43.7141061,43.8268738 C41.7037373,42.4607728 40.0902904,40.5580749 38.810539,38.477712 C36.6186867,34.8499815 35.4267499,30.6508414 35.0497326,26.418089 C34.8167312,23.9499838 34.9057166,21.4614711 35.1937485,19.0029695 C35.3845989,17.7040931 35.6304798,16.4136198 35.9594918,15.143554 L35.9594918,15.143554 Z" id="path3073" fill="#01A6B6"></path>
                        <path d="M65.618579,15.4208557 C65.9674957,16.6645118 66.1103408,17.9549851 66.2672362,19.2358549 C67.0751305,18.8553153 67.8584367,18.4207559 68.6850647,18.0822318 C73.1366793,16.1543247 78.0929352,15.2215826 82.9016625,15.9946662 L82.9285923,15.9982675 C83.80908,20.7844228 82.7740386,25.7482433 80.7566446,30.096238 C78.2872981,35.372173 74.3965261,39.9566544 69.6135577,43.1534268 C68.3349772,43.9553209 67.0329795,44.757215 65.6174082,45.2746048 C67.9450804,41.220718 70.5537594,37.3468972 73.1764886,33.4910831 C75.6177344,29.9149715 78.0987895,26.368871 80.5728194,22.8167682 C80.8069916,22.4710414 81.0727771,22.1469225 81.2647984,21.7723852 C78.2182173,25.4781443 75.2184707,29.2247184 72.1531559,32.9148718 C69.2786914,36.3613358 66.3901766,39.8041985 63.2335346,42.9841647 C61.8273302,44.4102878 60.3473615,45.7619835 58.7549902,46.9660251 C58.5336974,46.9624238 58.3124046,46.9588225 58.0922827,46.9456176 C58.0852575,46.8879965 58.0700363,46.7727542 58.0630112,46.7151331 C58.5208179,41.8173368 59.6799706,37.0263797 60.8859577,32.2762375 C62.2605489,26.9618885 63.787352,21.6907552 65.3071299,16.419622 C65.399628,16.0834987 65.492126,15.746175 65.618579,15.4208557 L65.618579,15.4208557 Z" id="path3075" fill="#007895"></path>
                        <path d="M19.0124456,15.967056 C19.9327425,15.8758226 20.8506978,15.7437741 21.7768491,15.7305693 C26.4333644,15.5949195 31.0418744,16.8961968 35.1937485,19.0029695 C34.9057166,21.4614711 34.8167312,23.9499838 35.0497326,26.418089 C35.4267499,30.6508414 36.6186867,34.8499815 38.810539,38.477712 C40.0902904,40.5580749 41.7037373,42.4607728 43.7141061,43.8268738 C43.883881,44.9456841 44.0208718,46.0704967 44.1157115,47.200111 C42.4085958,46.0248799 40.8466668,44.6443736 39.3362558,43.2182506 C37.3469624,41.3335594 35.4607049,39.3396281 33.6095732,37.3156858 C29.3394421,32.6507749 25.229719,27.8346085 21.0626237,23.0736624 C21.2698661,23.4518011 21.5508728,23.7795213 21.8037789,24.127649 C26.0516636,29.8549495 30.3721418,35.5282302 34.4116132,41.4139889 C35.3576691,42.8028983 36.2861621,44.2050125 37.1701624,45.6371377 C35.6187712,45.1257502 34.1750992,44.3178539 32.7817743,43.4595391 C29.8206661,41.5988567 27.2166706,39.1667647 25.0341851,36.4021507 C22.5543009,33.2437924 20.6176964,29.6112601 19.5311371,25.7050275 C18.9562442,23.5922526 18.6213779,21.3990482 18.6787501,19.2010421 C18.6506494,18.1314498 18.8426707,17.0774633 18.9574151,16.018675 L18.9609277,15.9730582 L19.0124456,15.967056 L19.0124456,15.967056 Z" id="path3077" fill="#007895"></path>
                        <path d="M9.46641349,21.8276054 C11.5341545,18.5059872 15.2387596,16.5984876 18.9574151,16.018675 C18.8426707,17.0774633 18.6506494,18.1314498 18.6787501,19.2010421 C18.6213779,21.3990482 18.9562442,23.5922526 19.5311371,25.7050275 C20.6176964,29.6112601 22.5543009,33.2437924 25.0341851,36.4021507 C27.2166706,39.1667647 29.8206661,41.5988567 32.7817743,43.4595391 C34.1750992,44.3178539 35.6187712,45.1257502 37.1701624,45.6371377 C38.2930183,47.4546043 39.3830902,49.3020819 40.2741156,51.2527973 C40.4075938,51.4424669 40.1160494,51.4496695 40.001305,51.4016519 C33.0229717,49.8326765 26.039955,48.2829081 19.0663052,46.687523 C18.9082389,46.496653 18.7443183,46.3081838 18.5405885,46.1689328 C16.5934461,44.8556511 14.8488628,43.2458607 13.269371,41.4932179 C10.550631,38.3636701 8.35877872,34.5690784 7.78505669,30.3639362 C7.3553506,27.4372628 7.86818784,24.3197194 9.46641349,21.8276054 L9.46641349,21.8276054 Z" id="path3079" fill="#01A6B6"></path>
                        <path d="M82.9285923,15.9982675 C85.1274698,16.3848092 87.2982466,17.1350844 89.1528909,18.429159 C90.9525047,19.6584099 92.4289608,21.40385 93.2907147,23.443398 C94.2379414,25.6113932 94.4334753,28.0578904 94.1255388,30.3939472 C93.5529876,34.3349926 91.6070161,37.9411152 89.1083981,40.9434163 C87.3310307,43.0117749 85.3171493,44.8796599 83.0608996,46.3874129 C82.8513154,46.5350671 82.6639776,46.7151331 82.4731272,46.8855956 C78.5097618,47.9167738 74.5206374,48.8627207 70.547905,49.8602866 C68.2401375,50.4232931 65.939395,51.0199119 63.6281148,51.5613105 C63.2686604,51.4952862 62.9255981,51.3656387 62.5919026,51.2203854 C63.4840989,49.1784365 64.5027482,47.1965096 65.6174082,45.2746048 C67.0329795,44.757215 68.3349772,43.9553209 69.6135577,43.1534268 C74.3965261,39.9566544 78.2872981,35.372173 80.7566446,30.096238 C82.7740386,25.7482433 83.80908,20.7844228 82.9285923,15.9982675 L82.9285923,15.9982675 Z" id="path3081" fill="#01A6B6"></path>
                        <path d="M50.5765241,18.5984211 C50.7662036,18.3031128 50.9874964,18.0306128 51.2204978,17.7701173 C51.1970806,19.7712512 51.1420501,21.7723852 51.0952156,23.7723187 C51.0565772,24.1600609 51.0858488,24.5490035 51.1279998,24.9343448 C50.9945216,24.8575167 51.0940448,24.6126268 51.0401852,24.4913824 C50.9582249,22.8827924 50.914903,21.2718016 50.8200632,19.6644121 C50.6807308,24.8695211 50.6573135,30.0830332 50.4664631,35.2893426 C50.3973823,36.7946947 50.3891863,38.3048486 50.2018485,39.8005971 C50.0554908,41.1258832 49.8786908,42.4475679 49.6527145,43.7608496 C47.8554425,42.1138455 46.703315,39.8210046 46.1494976,37.4369302 C45.4024881,34.2701688 45.6401729,30.9341453 46.4211374,27.7997958 C47.2524489,24.509389 48.7171964,21.4050504 50.5765241,18.5984211 L50.5765241,18.5984211 Z" id="path3083" fill="#007895"></path>
                        <path d="M7.78505669,30.3639362 C8.35877872,34.5690784 10.550631,38.3636701 13.269371,41.4932179 C14.8488628,43.2458607 16.5934461,44.8556511 18.5405885,46.1689328 C18.7443183,46.3081838 18.9082389,46.496653 19.0663052,46.687523 C15.2036338,45.853217 11.3538419,44.9540872 7.49468309,44.1029751 C7.64923678,44.1726006 7.80496133,44.2338231 7.96536933,44.2890433 C14.408619,46.3489988 20.8483561,48.4257605 27.2927766,50.4845155 C31.7701501,51.9394491 36.2662575,53.3415634 40.7366059,54.8181049 C37.8621414,57.5118929 34.1247522,59.0640621 30.3299907,59.7771237 C25.0669693,60.745879 19.5756298,60.2020795 14.5327303,58.4122231 C11.8865838,57.4566726 9.35518167,56.1373888 7.10595714,54.4123561 C4.55699212,52.4580393 2.33703913,49.943117 1.06431291,46.9240097 C-0.00351258386,44.4222922 -0.286861015,41.5448369 0.44609815,38.9050687 C1.12988114,36.3481309 2.72108163,34.1129111 4.70803323,32.4467 C5.65643087,31.6412046 6.70083914,30.960555 7.78505669,30.3639362 L7.78505669,30.3639362 Z" id="path3085" fill="#12B8D1"></path>
                        <path d="M94.1255388,30.3939472 C95.8068956,31.2450593 97.3325278,32.4202904 98.6204752,33.8164024 C100.226897,35.5762478 101.381366,37.8018641 101.731454,40.1979429 C102.116667,42.6312353 101.675252,45.1617634 100.641382,47.3753752 C99.2164436,50.4761125 96.8021277,52.997037 94.0857295,54.9429507 C90.3822952,57.5647122 86.0477667,59.1793044 81.6125442,59.8743593 C77.030964,60.58502 72.2585334,60.3329275 67.8596075,58.7807582 C65.6092121,57.981265 63.4618525,56.825241 61.6399924,55.2418603 C72.4376752,51.5156937 83.2376997,47.7931285 94.0400659,44.0789663 C92.6139568,44.3478649 91.2171193,44.7656181 89.801548,45.0909374 C87.3579605,45.6851553 84.9249108,46.3273909 82.4731272,46.8855956 C82.6639776,46.7151331 82.8513154,46.5350671 83.0608996,46.3874129 C85.3171493,44.8796599 87.3310307,43.0117749 89.1083981,40.9434163 C91.6070161,37.9411152 93.5529876,34.3349926 94.1255388,30.3939472 L94.1255388,30.3939472 Z" id="path3087" fill="#12B8D1"></path>
                        <path d="M58.0021264,47.5182276 C58.0173476,47.249329 58.0349105,46.9816308 58.0630112,46.7151331 C58.0700363,46.7727542 58.0852575,46.8879965 58.0922827,46.9456176 C58.3124046,46.9588225 58.5336974,46.9624238 58.7549902,46.9660251 C58.4997424,47.1436903 58.2480072,47.3273576 58.0021264,47.5182276 L58.0021264,47.5182276 Z" id="path3089" fill="#01A6B6"></path>
                        <path d="M62.4443741,51.5769162 C62.4923794,51.4568722 62.5415556,51.3380286 62.5919026,51.2203854 C62.9255981,51.3656387 63.2686604,51.4952862 63.6281148,51.5613105 C63.2932485,51.6597466 62.9548696,51.7449778 62.6176616,51.8278082 C62.5743397,51.7653853 62.487696,51.6393391 62.4443741,51.5769162 L62.4443741,51.5769162 Z" id="path3091" fill="#12B8D1"></path>
                    </g>
                </g>
                <text id="umbreo" stroke="#FFFFFF" stroke-width="1.5" fill="#FFFFFF" sketch:type="MSTextLayer" font-family="Arual" font-size="59.6202567" font-weight="260" sketch:alignment="middle">
                    <tspan x="121.233924" y="50">umbreo</tspan>
                </text>
            </g>
        </g>
    </g>
</svg>